<svg width="72" height="74" viewBox="0 0 72 74" fill="none" xmlns="http://www.w3.org/2000/svg">
<g filter="url(#filter0_d)">
<path d="M66 35.5C66 52.3447 52.3447 66 35.5 66C18.6553 66 5 52.3447 5 35.5C5 18.6553 18.6553 5 35.5 5C52.3447 5 66 18.6553 66 35.5Z" fill="#29F2CE" fill-opacity="0.49"/>
<path d="M66 35.5C66 52.3447 52.3447 66 35.5 66C18.6553 66 5 52.3447 5 35.5C5 18.6553 18.6553 5 35.5 5C52.3447 5 66 18.6553 66 35.5Z" fill="url(#paint0_angular)"/>
<path d="M65.5 35.5C65.5 52.0685 52.0685 65.5 35.5 65.5C18.9315 65.5 5.5 52.0685 5.5 35.5C5.5 18.9315 18.9315 5.5 35.5 5.5C52.0685 5.5 65.5 18.9315 65.5 35.5Z" stroke="#29F2CE"/>
</g>
<path fill-rule="evenodd" clip-rule="evenodd" d="M34.9866 0.00121511L35.0322 0V1.00036C26.498 1.22883 18.7257 4.51222 12.7688 9.79672C12.3569 10.1621 11.9537 10.5371 11.5596 10.9212C5.47219 16.8543 1.53806 24.9859 1.04021 34.0332H0.0387293L0.0411987 33.9876C0.557309 24.5623 4.69894 16.1027 11.0953 9.97932C15.9255 5.35528 22.0415 2.06353 28.853 0.694299C30.8431 0.294261 32.8925 0.0583265 34.9866 0.00121511ZM52.9074 5.34224C48.4315 2.86553 43.3554 1.34097 37.9526 1.04187V0.0403689L37.9866 0.0422111C56.2765 1.04372 70.9304 15.6977 71.9319 33.9876L71.9344 34.0332H70.9329C70.6973 29.7528 69.6926 25.6773 68.0547 21.9427C64.9603 14.8875 59.6058 9.04869 52.9074 5.34224ZM1.00038 36.9802H0C6.64024e-05 36.9827 0.00013305 36.9851 0.000199943 36.9876C0.529825 56.4075 16.4387 71.9876 35.9866 71.9876C55.5344 71.9876 71.4433 56.4075 71.973 36.9876C71.973 36.9851 71.9731 36.9827 71.9732 36.9802H70.9728C70.4473 55.8512 54.9846 70.9876 35.9866 70.9876C16.9886 70.9876 1.52589 55.8512 1.00038 36.9802Z" fill="#00C2FF"/>
<path d="M35.201 34.7273C35.201 29.9688 32.2464 27.2557 28.3899 27.2557C24.5121 27.2557 21.5788 29.9688 21.5788 34.7273C21.5788 39.4645 24.5121 42.1989 28.3899 42.1989C32.2464 42.1989 35.201 39.4858 35.201 34.7273ZM32.0831 34.7273C32.0831 37.8097 30.62 39.4787 28.3899 39.4787C26.1527 39.4787 24.6967 37.8097 24.6967 34.7273C24.6967 31.6449 26.1527 29.9759 28.3899 29.9759C30.62 29.9759 32.0831 31.6449 32.0831 34.7273ZM47.1239 32.1562H50.2489C49.8512 29.2798 47.3157 27.2557 44.0273 27.2557C40.185 27.2557 37.2234 30.0256 37.2234 34.7415C37.2234 39.3438 39.9933 42.1989 44.0913 42.1989C47.7631 42.1989 50.3839 39.8764 50.3839 36.0483V34.2159H44.2972V36.5312H47.4222C47.3796 38.3352 46.1509 39.4787 44.1055 39.4787C41.7972 39.4787 40.3413 37.7528 40.3413 34.7131C40.3413 31.6875 41.854 29.9759 44.0771 29.9759C45.6609 29.9759 46.7333 30.7926 47.1239 32.1562Z" fill="url(#paint1_angular)"/>
<path d="M35.701 34.7273C35.701 32.243 34.9278 30.2431 33.6026 28.861C32.277 27.4785 30.4383 26.7557 28.3899 26.7557V27.7557C30.198 27.7557 31.7649 28.3894 32.8808 29.5531C33.9969 30.7171 34.701 32.453 34.701 34.7273H35.701ZM28.3899 26.7557C26.3314 26.7557 24.4923 27.4782 23.1689 28.8614C21.8461 30.244 21.0788 32.244 21.0788 34.7273H22.0788C22.0788 32.452 22.7782 30.7162 23.8915 29.5527C25.0041 28.3897 26.5706 27.7557 28.3899 27.7557V26.7557ZM21.0788 34.7273C21.0788 37.2004 21.8464 39.2 23.1685 40.5848C24.4914 41.9703 26.3303 42.6989 28.3899 42.6989V41.6989C26.5717 41.6989 25.0051 41.0602 23.8918 39.8942C22.7779 38.7276 22.0788 36.9914 22.0788 34.7273H21.0788ZM28.3899 42.6989C30.4383 42.6989 32.277 41.976 33.6026 40.5936C34.9278 39.2114 35.701 37.2116 35.701 34.7273H34.701C34.701 37.0015 33.9969 38.7374 32.8808 39.9015C31.7649 41.0652 30.198 41.6989 28.3899 41.6989V42.6989ZM31.5831 34.7273C31.5831 36.1962 31.2339 37.2598 30.683 37.9458C30.1428 38.6184 29.3692 38.9787 28.3899 38.9787V39.9787C29.6407 39.9787 30.7137 39.5045 31.4626 38.572C32.2007 37.6529 32.5831 36.3408 32.5831 34.7273H31.5831ZM28.3899 38.9787C27.4067 38.9787 26.6334 38.6181 26.0944 37.9461C25.5444 37.2602 25.1967 36.1967 25.1967 34.7273H24.1967C24.1967 36.3402 24.5771 37.6524 25.3143 38.5717C26.0626 39.5047 27.1359 39.9787 28.3899 39.9787V38.9787ZM25.1967 34.7273C25.1967 33.2578 25.5444 32.1943 26.0944 31.5085C26.6334 30.8364 27.4067 30.4759 28.3899 30.4759V29.4759C27.1359 29.4759 26.0626 29.9498 25.3143 30.8828C24.5771 31.8021 24.1967 33.1143 24.1967 34.7273H25.1967ZM28.3899 30.4759C29.3692 30.4759 30.1428 30.8362 30.683 31.5088C31.2339 32.1948 31.5831 33.2584 31.5831 34.7273H32.5831C32.5831 33.1138 32.2007 31.8017 31.4626 30.8826C30.7137 29.9501 29.6407 29.4759 28.3899 29.4759V30.4759ZM47.1239 32.1562L46.6433 32.2939L46.7471 32.6562H47.1239V32.1562ZM50.2489 32.1562V32.6562H50.8228L50.7442 32.0878L50.2489 32.1562ZM50.3839 34.2159H50.8839V33.7159H50.3839V34.2159ZM44.2972 34.2159V33.7159H43.7972V34.2159H44.2972ZM44.2972 36.5312H43.7972V37.0312H44.2972V36.5312ZM47.4222 36.5312L47.9221 36.5431L47.9342 36.0312H47.4222V36.5312ZM47.1239 32.6562H50.2489V31.6562H47.1239V32.6562ZM50.7442 32.0878C50.3067 28.9235 47.5221 26.7557 44.0273 26.7557V27.7557C47.1093 27.7557 49.3957 29.6362 49.7536 32.2247L50.7442 32.0878ZM44.0273 26.7557C41.9826 26.7557 40.1462 27.495 38.8224 28.8853C37.499 30.2751 36.7234 32.2772 36.7234 34.7415H37.7234C37.7234 32.4898 38.4285 30.749 39.5466 29.5749C40.6641 28.4013 42.2297 27.7557 44.0273 27.7557V26.7557ZM36.7234 34.7415C36.7234 37.1426 37.4473 39.1379 38.7553 40.5374C40.066 41.9399 41.9215 42.6989 44.0913 42.6989V41.6989C42.163 41.6989 40.5846 41.0302 39.4859 39.8546C38.3844 38.676 37.7234 36.9426 37.7234 34.7415H36.7234ZM44.0913 42.6989C46.0325 42.6989 47.7365 42.0836 48.959 40.9215C50.1848 39.7563 50.8839 38.0814 50.8839 36.0483H49.8839C49.8839 37.8433 49.2726 39.2437 48.27 40.1967C47.2642 41.1529 45.8219 41.6989 44.0913 41.6989V42.6989ZM50.8839 36.0483V34.2159H49.8839V36.0483H50.8839ZM50.3839 33.7159H44.2972V34.7159H50.3839V33.7159ZM43.7972 34.2159V36.5312H44.7972V34.2159H43.7972ZM44.2972 37.0312H47.4222V36.0312H44.2972V37.0312ZM46.9224 36.5194C46.9038 37.306 46.631 37.9043 46.1804 38.3098C45.7254 38.7193 45.0368 38.9787 44.1055 38.9787V39.9787C45.2196 39.9787 46.168 39.6664 46.8494 39.0531C47.5352 38.4358 47.8981 37.5605 47.9221 36.5431L46.9224 36.5194ZM44.1055 38.9787C43.0872 38.9787 42.2957 38.6042 41.7474 37.9225C41.1883 37.2272 40.8413 36.1599 40.8413 34.7131H39.8413C39.8413 36.306 40.2222 37.6215 40.9681 38.5491C41.7249 39.4902 42.8155 39.9787 44.1055 39.9787V38.9787ZM40.8413 34.7131C40.8413 33.2783 41.2002 32.2174 41.7633 31.5255C42.3176 30.8445 43.1047 30.4759 44.0771 30.4759V29.4759C42.8264 29.4759 41.7457 29.963 40.9877 30.8943C40.2388 31.8145 39.8413 33.1223 39.8413 34.7131H40.8413ZM44.0771 30.4759C44.7819 30.4759 45.3383 30.6567 45.7538 30.959C46.168 31.2604 46.4749 31.7061 46.6433 32.2939L47.6046 32.0186C47.3824 31.2428 46.9577 30.5983 46.3421 30.1504C45.7278 29.7034 44.956 29.4759 44.0771 29.4759V30.4759Z" fill="#0983A9"/>
<defs>
<filter id="filter0_d" x="1" y="5" width="69" height="69" filterUnits="userSpaceOnUse" color-interpolation-filters="sRGB">
<feFlood flood-opacity="0" result="BackgroundImageFix"/>
<feColorMatrix in="SourceAlpha" type="matrix" values="0 0 0 0 0 0 0 0 0 0 0 0 0 0 0 0 0 0 127 0"/>
<feOffset dy="4"/>
<feGaussianBlur stdDeviation="2"/>
<feColorMatrix type="matrix" values="0 0 0 0 0 0 0 0 0 0 0 0 0 0 0 0 0 0 0.25 0"/>
<feBlend mode="normal" in2="BackgroundImageFix" result="effect1_dropShadow"/>
<feBlend mode="normal" in="SourceGraphic" in2="effect1_dropShadow" result="shape"/>
</filter>
<radialGradient id="paint0_angular" cx="0" cy="0" r="1" gradientUnits="userSpaceOnUse" gradientTransform="translate(35.5 35.5) rotate(-90) scale(20.4573)">
<stop offset="0.254723" stop-color="#00D5D5" stop-opacity="0.5"/>
<stop offset="0.742808" stop-color="#00D5D5" stop-opacity="0.5"/>
<stop offset="1" stop-color="#00D5D5"/>
</radialGradient>
<radialGradient id="paint1_angular" cx="0" cy="0" r="1" gradientUnits="userSpaceOnUse" gradientTransform="translate(36 32) rotate(90) scale(17 34)">
<stop stop-color="#00D5D5"/>
<stop offset="0.255208" stop-color="#E5E5E5"/>
<stop offset="0.744792" stop-color="#E5E5E5"/>
</radialGradient>
</defs>
</svg>
