<svg width="72" height="74" viewBox="0 0 72 74" fill="none" xmlns="http://www.w3.org/2000/svg">
<g filter="url(#filter0_d)">
<path d="M66 35.5C66 52.3447 52.3447 66 35.5 66C18.6553 66 5 52.3447 5 35.5C5 18.6553 18.6553 5 35.5 5C52.3447 5 66 18.6553 66 35.5Z" fill="#29F2CE" fill-opacity="0.49"/>
<path d="M66 35.5C66 52.3447 52.3447 66 35.5 66C18.6553 66 5 52.3447 5 35.5C5 18.6553 18.6553 5 35.5 5C52.3447 5 66 18.6553 66 35.5Z" fill="url(#paint0_angular)"/>
<path d="M65.5 35.5C65.5 52.0685 52.0685 65.5 35.5 65.5C18.9315 65.5 5.5 52.0685 5.5 35.5C5.5 18.9315 18.9315 5.5 35.5 5.5C52.0685 5.5 65.5 18.9315 65.5 35.5Z" stroke="#29F2CE"/>
</g>
<path fill-rule="evenodd" clip-rule="evenodd" d="M34.9866 0.00121511L35.0322 0V1.00036C26.498 1.22883 18.7257 4.51222 12.7688 9.79672C12.3569 10.1621 11.9537 10.5371 11.5596 10.9212C5.47219 16.8543 1.53806 24.9859 1.04021 34.0332H0.0387293L0.0411987 33.9876C0.557309 24.5623 4.69894 16.1027 11.0953 9.97932C15.9255 5.35528 22.0415 2.06353 28.853 0.694299C30.8431 0.294261 32.8925 0.0583265 34.9866 0.00121511ZM52.9074 5.34224C48.4315 2.86553 43.3554 1.34097 37.9526 1.04187V0.0403689L37.9866 0.0422111C56.2765 1.04372 70.9304 15.6977 71.9319 33.9876L71.9344 34.0332H70.9329C70.6973 29.7528 69.6926 25.6773 68.0547 21.9427C64.9603 14.8875 59.6058 9.04869 52.9074 5.34224ZM1.00038 36.9802H0C6.64024e-05 36.9827 0.00013305 36.9851 0.000199943 36.9876C0.529825 56.4075 16.4387 71.9876 35.9866 71.9876C55.5344 71.9876 71.4433 56.4075 71.973 36.9876C71.973 36.9851 71.9731 36.9827 71.9732 36.9802H70.9728C70.4473 55.8512 54.9846 70.9876 35.9866 70.9876C16.9886 70.9876 1.52589 55.8512 1.00038 36.9802Z" fill="#00C2FF"/>
<path d="M24.2271 42H27.3024V37.2841H29.8876C33.2328 37.2841 35.1788 35.2884 35.1788 32.3835C35.1788 29.4929 33.2683 27.4545 29.9657 27.4545H24.2271V42ZM27.3024 34.8196V29.9688H29.3762C31.1518 29.9688 32.0112 30.9347 32.0112 32.3835C32.0112 33.8253 31.1518 34.8196 29.3904 34.8196H27.3024ZM37.1763 42H40.2516V36.8438H42.4959L45.2516 42H48.6465L45.557 36.3466C47.2118 35.6364 48.128 34.1946 48.128 32.206C48.128 29.3153 46.2175 27.4545 42.915 27.4545H37.1763V42ZM40.2516 34.3722V29.9688H42.3255C44.101 29.9688 44.9604 30.7571 44.9604 32.206C44.9604 33.6477 44.101 34.3722 42.3397 34.3722H40.2516Z" fill="url(#paint1_angular)"/>
<path d="M24.2271 42H23.7271V42.5H24.2271V42ZM27.3024 42V42.5H27.8024V42H27.3024ZM27.3024 37.2841V36.7841H26.8024V37.2841H27.3024ZM24.2271 27.4545V26.9545H23.7271V27.4545H24.2271ZM27.3024 34.8196H26.8024V35.3196H27.3024V34.8196ZM27.3024 29.9688V29.4688H26.8024V29.9688H27.3024ZM24.2271 42.5H27.3024V41.5H24.2271V42.5ZM27.8024 42V37.2841H26.8024V42H27.8024ZM27.3024 37.7841H29.8876V36.7841H27.3024V37.7841ZM29.8876 37.7841C31.6596 37.7841 33.1159 37.2539 34.1326 36.2851C35.1511 35.3145 35.6788 33.9507 35.6788 32.3835H34.6788C34.6788 33.7212 34.2334 34.8077 33.4427 35.5611C32.6501 36.3164 31.4608 36.7841 29.8876 36.7841V37.7841ZM35.6788 32.3835C35.6788 30.826 35.1618 29.4571 34.1603 28.4776C33.1591 27.4983 31.7212 26.9545 29.9657 26.9545V27.9545C31.5128 27.9545 32.6815 28.43 33.4611 29.1925C34.2405 29.9548 34.6788 31.0504 34.6788 32.3835H35.6788ZM29.9657 26.9545H24.2271V27.9545H29.9657V26.9545ZM23.7271 27.4545V42H24.7271V27.4545H23.7271ZM27.8024 34.8196V29.9688H26.8024V34.8196H27.8024ZM27.3024 30.4688H29.3762V29.4688H27.3024V30.4688ZM29.3762 30.4688C30.1759 30.4688 30.6945 30.6851 31.0119 30.9922C31.3276 31.2976 31.5112 31.7576 31.5112 32.3835H32.5112C32.5112 31.5606 32.2651 30.8132 31.7072 30.2735C31.151 29.7354 30.3522 29.4688 29.3762 29.4688V30.4688ZM31.5112 32.3835C31.5112 33.0057 31.3276 33.4734 31.0103 33.7861C30.693 34.0989 30.1781 34.3196 29.3904 34.3196V35.3196C30.3642 35.3196 31.1596 35.0431 31.7123 34.4983C32.2651 33.9534 32.5112 33.2031 32.5112 32.3835H31.5112ZM29.3904 34.3196H27.3024V35.3196H29.3904V34.3196ZM37.1763 42H36.6763V42.5H37.1763V42ZM40.2516 42V42.5H40.7516V42H40.2516ZM40.2516 36.8438V36.3438H39.7516V36.8438H40.2516ZM42.4959 36.8438L42.9369 36.6081L42.7956 36.3438H42.4959V36.8438ZM45.2516 42L44.8106 42.2357L44.9519 42.5H45.2516V42ZM48.6465 42V42.5H49.4895L49.0852 41.7602L48.6465 42ZM45.557 36.3466L45.3598 35.8871L44.8546 36.1039L45.1182 36.5864L45.557 36.3466ZM37.1763 27.4545V26.9545H36.6763V27.4545H37.1763ZM40.2516 34.3722H39.7516V34.8722H40.2516V34.3722ZM40.2516 29.9688V29.4688H39.7516V29.9688H40.2516ZM37.1763 42.5H40.2516V41.5H37.1763V42.5ZM40.7516 42V36.8438H39.7516V42H40.7516ZM40.2516 37.3438H42.4959V36.3438H40.2516V37.3438ZM42.0549 37.0794L44.8106 42.2357L45.6926 41.7643L42.9369 36.6081L42.0549 37.0794ZM45.2516 42.5H48.6465V41.5H45.2516V42.5ZM49.0852 41.7602L45.9958 36.1068L45.1182 36.5864L48.2077 42.2398L49.0852 41.7602ZM45.7542 36.8061C47.6103 36.0095 48.628 34.3747 48.628 32.206H47.628C47.628 34.0145 46.8134 35.2633 45.3598 35.8871L45.7542 36.8061ZM48.628 32.206C48.628 30.6467 48.1095 29.3168 47.1001 28.3798C46.0948 27.4467 44.6582 26.9545 42.915 26.9545V27.9545C44.4743 27.9545 45.6442 28.3928 46.4198 29.1127C47.1913 29.8288 47.628 30.8746 47.628 32.206H48.628ZM42.915 26.9545H37.1763V27.9545H42.915V26.9545ZM36.6763 27.4545V42H37.6763V27.4545H36.6763ZM40.7516 34.3722V29.9688H39.7516V34.3722H40.7516ZM40.2516 30.4688H42.3255V29.4688H40.2516V30.4688ZM42.3255 30.4688C43.1495 30.4688 43.6707 30.6529 43.9815 30.922C44.2792 31.1798 44.4604 31.5825 44.4604 32.206H45.4604C45.4604 31.3805 45.212 30.6647 44.6361 30.166C44.0733 29.6787 43.277 29.4688 42.3255 29.4688V30.4688ZM44.4604 32.206C44.4604 32.8242 44.2805 33.2047 43.9911 33.4451C43.6836 33.7005 43.1646 33.8722 42.3397 33.8722V34.8722C43.2761 34.8722 44.0675 34.6816 44.63 34.2143C45.2107 33.7321 45.4604 33.0295 45.4604 32.206H44.4604ZM42.3397 33.8722H40.2516V34.8722H42.3397V33.8722Z" fill="#0983A9"/>
<defs>
<filter id="filter0_d" x="1" y="5" width="69" height="69" filterUnits="userSpaceOnUse" color-interpolation-filters="sRGB">
<feFlood flood-opacity="0" result="BackgroundImageFix"/>
<feColorMatrix in="SourceAlpha" type="matrix" values="0 0 0 0 0 0 0 0 0 0 0 0 0 0 0 0 0 0 127 0"/>
<feOffset dy="4"/>
<feGaussianBlur stdDeviation="2"/>
<feColorMatrix type="matrix" values="0 0 0 0 0 0 0 0 0 0 0 0 0 0 0 0 0 0 0.25 0"/>
<feBlend mode="normal" in2="BackgroundImageFix" result="effect1_dropShadow"/>
<feBlend mode="normal" in="SourceGraphic" in2="effect1_dropShadow" result="shape"/>
</filter>
<radialGradient id="paint0_angular" cx="0" cy="0" r="1" gradientUnits="userSpaceOnUse" gradientTransform="translate(35.5 35.5) rotate(-90) scale(20.4573)">
<stop offset="0.254723" stop-color="#00D5D5" stop-opacity="0.5"/>
<stop offset="0.742808" stop-color="#00D5D5" stop-opacity="0.5"/>
<stop offset="1" stop-color="#00D5D5"/>
</radialGradient>
<radialGradient id="paint1_angular" cx="0" cy="0" r="1" gradientUnits="userSpaceOnUse" gradientTransform="translate(36 32) rotate(90) scale(17 34)">
<stop stop-color="#00D5D5"/>
<stop offset="0.255208" stop-color="#E5E5E5"/>
<stop offset="0.744792" stop-color="#E5E5E5"/>
</radialGradient>
</defs>
</svg>
