<svg width="72" height="74" viewBox="0 0 72 74" fill="none" xmlns="http://www.w3.org/2000/svg">
<g filter="url(#filter0_d)">
<path d="M66 35.5C66 52.3447 52.3447 66 35.5 66C18.6553 66 5 52.3447 5 35.5C5 18.6553 18.6553 5 35.5 5C52.3447 5 66 18.6553 66 35.5Z" fill="#29F2CE" fill-opacity="0.49"/>
<path d="M66 35.5C66 52.3447 52.3447 66 35.5 66C18.6553 66 5 52.3447 5 35.5C5 18.6553 18.6553 5 35.5 5C52.3447 5 66 18.6553 66 35.5Z" fill="url(#paint0_angular)"/>
<path d="M65.5 35.5C65.5 52.0685 52.0685 65.5 35.5 65.5C18.9315 65.5 5.5 52.0685 5.5 35.5C5.5 18.9315 18.9315 5.5 35.5 5.5C52.0685 5.5 65.5 18.9315 65.5 35.5Z" stroke="#29F2CE"/>
</g>
<path fill-rule="evenodd" clip-rule="evenodd" d="M34.9866 0.00121511L35.0322 0V1.00036C26.498 1.22883 18.7257 4.51222 12.7688 9.79672C12.3569 10.1621 11.9537 10.5371 11.5596 10.9212C5.47219 16.8543 1.53806 24.9859 1.04021 34.0332H0.0387293L0.0411987 33.9876C0.557309 24.5623 4.69894 16.1027 11.0953 9.97932C15.9255 5.35528 22.0415 2.06353 28.853 0.694299C30.8431 0.294261 32.8925 0.0583265 34.9866 0.00121511ZM52.9074 5.34224C48.4315 2.86553 43.3554 1.34097 37.9526 1.04187V0.0403689L37.9866 0.0422111C56.2765 1.04372 70.9304 15.6977 71.9319 33.9876L71.9344 34.0332H70.9329C70.6973 29.7528 69.6926 25.6773 68.0547 21.9427C64.9603 14.8875 59.6058 9.04869 52.9074 5.34224ZM1.00038 36.9802H0C6.64024e-05 36.9827 0.00013305 36.9851 0.000199943 36.9876C0.529825 56.4075 16.4387 71.9876 35.9866 71.9876C55.5344 71.9876 71.4433 56.4075 71.973 36.9876C71.973 36.9851 71.9731 36.9827 71.9732 36.9802H70.9728C70.4473 55.8512 54.9846 70.9876 35.9866 70.9876C16.9886 70.9876 1.52589 55.8512 1.00038 36.9802Z" fill="#00C2FF"/>
<path d="M26.5096 42L27.5891 38.6832H32.8377L33.9173 42H37.2127L32.1985 27.4545H28.2354L23.2141 42H26.5096ZM28.3704 36.2827L30.1602 30.7784H30.2738L32.0636 36.2827H28.3704ZM36.6126 29.9901H41.0657V42H44.1055V29.9901H48.5586V27.4545H36.6126V29.9901Z" fill="url(#paint1_angular)"/>
<path d="M26.5096 42V42.5H26.8727L26.985 42.1548L26.5096 42ZM27.5891 38.6832V38.1832H27.2261L27.1137 38.5285L27.5891 38.6832ZM32.8377 38.6832L33.3132 38.5285L33.2008 38.1832H32.8377V38.6832ZM33.9173 42L33.4418 42.1548L33.5542 42.5H33.9173V42ZM37.2127 42V42.5H37.914L37.6854 41.837L37.2127 42ZM32.1985 27.4545L32.6712 27.2916L32.555 26.9545H32.1985V27.4545ZM28.2354 27.4545V26.9545H27.8791L27.7628 27.2914L28.2354 27.4545ZM23.2141 42L22.7415 41.8368L22.5126 42.5H23.2141V42ZM28.3704 36.2827L27.8949 36.1281L27.682 36.7827H28.3704V36.2827ZM30.1602 30.7784V30.2784H29.797L29.6847 30.6238L30.1602 30.7784ZM30.2738 30.7784L30.7493 30.6238L30.637 30.2784H30.2738V30.7784ZM32.0636 36.2827V36.7827H32.7519L32.5391 36.1281L32.0636 36.2827ZM26.985 42.1548L28.0646 38.838L27.1137 38.5285L26.0341 41.8452L26.985 42.1548ZM27.5891 39.1832H32.8377V38.1832H27.5891V39.1832ZM32.3623 38.838L33.4418 42.1548L34.3927 41.8452L33.3132 38.5285L32.3623 38.838ZM33.9173 42.5H37.2127V41.5H33.9173V42.5ZM37.6854 41.837L32.6712 27.2916L31.7258 27.6175L36.74 42.163L37.6854 41.837ZM32.1985 26.9545H28.2354V27.9545H32.1985V26.9545ZM27.7628 27.2914L22.7415 41.8368L23.6868 42.1632L28.7081 27.6177L27.7628 27.2914ZM23.2141 42.5H26.5096V41.5H23.2141V42.5ZM28.8459 36.4373L30.6357 30.933L29.6847 30.6238L27.8949 36.1281L28.8459 36.4373ZM30.1602 31.2784H30.2738V30.2784H30.1602V31.2784ZM29.7983 30.933L31.5881 36.4373L32.5391 36.1281L30.7493 30.6238L29.7983 30.933ZM32.0636 35.7827H28.3704V36.7827H32.0636V35.7827ZM36.6126 29.9901H36.1126V30.4901H36.6126V29.9901ZM41.0657 29.9901H41.5657V29.4901H41.0657V29.9901ZM41.0657 42H40.5657V42.5H41.0657V42ZM44.1055 42V42.5H44.6055V42H44.1055ZM44.1055 29.9901V29.4901H43.6055V29.9901H44.1055ZM48.5586 29.9901V30.4901H49.0586V29.9901H48.5586ZM48.5586 27.4545H49.0586V26.9545H48.5586V27.4545ZM36.6126 27.4545V26.9545H36.1126V27.4545H36.6126ZM36.6126 30.4901H41.0657V29.4901H36.6126V30.4901ZM40.5657 29.9901V42H41.5657V29.9901H40.5657ZM41.0657 42.5H44.1055V41.5H41.0657V42.5ZM44.6055 42V29.9901H43.6055V42H44.6055ZM44.1055 30.4901H48.5586V29.4901H44.1055V30.4901ZM49.0586 29.9901V27.4545H48.0586V29.9901H49.0586ZM48.5586 26.9545H36.6126V27.9545H48.5586V26.9545ZM36.1126 27.4545V29.9901H37.1126V27.4545H36.1126Z" fill="#0983A9"/>
<defs>
<filter id="filter0_d" x="1" y="5" width="69" height="69" filterUnits="userSpaceOnUse" color-interpolation-filters="sRGB">
<feFlood flood-opacity="0" result="BackgroundImageFix"/>
<feColorMatrix in="SourceAlpha" type="matrix" values="0 0 0 0 0 0 0 0 0 0 0 0 0 0 0 0 0 0 127 0"/>
<feOffset dy="4"/>
<feGaussianBlur stdDeviation="2"/>
<feColorMatrix type="matrix" values="0 0 0 0 0 0 0 0 0 0 0 0 0 0 0 0 0 0 0.25 0"/>
<feBlend mode="normal" in2="BackgroundImageFix" result="effect1_dropShadow"/>
<feBlend mode="normal" in="SourceGraphic" in2="effect1_dropShadow" result="shape"/>
</filter>
<radialGradient id="paint0_angular" cx="0" cy="0" r="1" gradientUnits="userSpaceOnUse" gradientTransform="translate(35.5 35.5) rotate(-90) scale(20.4573)">
<stop offset="0.254723" stop-color="#00D5D5" stop-opacity="0.5"/>
<stop offset="0.742808" stop-color="#00D5D5" stop-opacity="0.5"/>
<stop offset="1" stop-color="#00D5D5"/>
</radialGradient>
<radialGradient id="paint1_angular" cx="0" cy="0" r="1" gradientUnits="userSpaceOnUse" gradientTransform="translate(36 32) rotate(90) scale(17 34)">
<stop stop-color="#00D5D5"/>
<stop offset="0.255208" stop-color="#E5E5E5"/>
<stop offset="0.744792" stop-color="#E5E5E5"/>
</radialGradient>
</defs>
</svg>
