<svg width="72" height="74" viewBox="0 0 72 74" fill="none" xmlns="http://www.w3.org/2000/svg">
<g filter="url(#filter0_d)">
<path d="M66 35.5C66 52.3447 52.3447 66 35.5 66C18.6553 66 5 52.3447 5 35.5C5 18.6553 18.6553 5 35.5 5C52.3447 5 66 18.6553 66 35.5Z" fill="#29F2CE" fill-opacity="0.49"/>
<path d="M66 35.5C66 52.3447 52.3447 66 35.5 66C18.6553 66 5 52.3447 5 35.5C5 18.6553 18.6553 5 35.5 5C52.3447 5 66 18.6553 66 35.5Z" fill="url(#paint0_angular)"/>
<path d="M65.5 35.5C65.5 52.0685 52.0685 65.5 35.5 65.5C18.9315 65.5 5.5 52.0685 5.5 35.5C5.5 18.9315 18.9315 5.5 35.5 5.5C52.0685 5.5 65.5 18.9315 65.5 35.5Z" stroke="#29F2CE"/>
</g>
<path fill-rule="evenodd" clip-rule="evenodd" d="M34.9866 0.00121511L35.0322 0V1.00036C26.498 1.22883 18.7257 4.51222 12.7688 9.79672C12.3569 10.1621 11.9537 10.5371 11.5596 10.9212C5.47219 16.8543 1.53806 24.9859 1.04021 34.0332H0.0387293L0.0411987 33.9876C0.557309 24.5623 4.69894 16.1027 11.0953 9.97932C15.9255 5.35528 22.0415 2.06353 28.853 0.694299C30.8431 0.294261 32.8925 0.0583265 34.9866 0.00121511ZM52.9074 5.34224C48.4315 2.86553 43.3554 1.34097 37.9526 1.04187V0.0403689L37.9866 0.0422111C56.2765 1.04372 70.9304 15.6977 71.9319 33.9876L71.9344 34.0332H70.9329C70.6973 29.7528 69.6926 25.6773 68.0547 21.9427C64.9603 14.8875 59.6058 9.04869 52.9074 5.34224ZM1.00038 36.9802H0C6.64024e-05 36.9827 0.00013305 36.9851 0.000199943 36.9876C0.529825 56.4075 16.4387 71.9876 35.9866 71.9876C55.5344 71.9876 71.4433 56.4075 71.973 36.9876C71.973 36.9851 71.9731 36.9827 71.9732 36.9802H70.9728C70.4473 55.8512 54.9846 70.9876 35.9866 70.9876C16.9886 70.9876 1.52589 55.8512 1.00038 36.9802Z" fill="#00C2FF"/>
<path d="M28.1626 42H37.9922V39.4645H31.2379V35.9915H37.4595V33.456H31.2379V29.9901H37.9638V27.4545H28.1626V42ZM42.1204 42.1847C43.0295 42.1847 43.8178 41.4247 43.8249 40.4801C43.8178 39.5497 43.0295 38.7898 42.1204 38.7898C41.1829 38.7898 40.4087 39.5497 40.4158 40.4801C40.4087 41.4247 41.1829 42.1847 42.1204 42.1847Z" fill="url(#paint1_angular)"/>
<path d="M28.1626 42H27.6626V42.5H28.1626V42ZM37.9922 42V42.5H38.4922V42H37.9922ZM37.9922 39.4645H38.4922V38.9645H37.9922V39.4645ZM31.2379 39.4645H30.7379V39.9645H31.2379V39.4645ZM31.2379 35.9915V35.4915H30.7379V35.9915H31.2379ZM37.4595 35.9915V36.4915H37.9595V35.9915H37.4595ZM37.4595 33.456H37.9595V32.956H37.4595V33.456ZM31.2379 33.456H30.7379V33.956H31.2379V33.456ZM31.2379 29.9901V29.4901H30.7379V29.9901H31.2379ZM37.9638 29.9901V30.4901H38.4638V29.9901H37.9638ZM37.9638 27.4545H38.4638V26.9545H37.9638V27.4545ZM28.1626 27.4545V26.9545H27.6626V27.4545H28.1626ZM28.1626 42.5H37.9922V41.5H28.1626V42.5ZM38.4922 42V39.4645H37.4922V42H38.4922ZM37.9922 38.9645H31.2379V39.9645H37.9922V38.9645ZM31.7379 39.4645V35.9915H30.7379V39.4645H31.7379ZM31.2379 36.4915H37.4595V35.4915H31.2379V36.4915ZM37.9595 35.9915V33.456H36.9595V35.9915H37.9595ZM37.4595 32.956H31.2379V33.956H37.4595V32.956ZM31.7379 33.456V29.9901H30.7379V33.456H31.7379ZM31.2379 30.4901H37.9638V29.4901H31.2379V30.4901ZM38.4638 29.9901V27.4545H37.4638V29.9901H38.4638ZM37.9638 26.9545H28.1626V27.9545H37.9638V26.9545ZM27.6626 27.4545V42H28.6626V27.4545H27.6626ZM43.8249 40.4801L44.325 40.4839L44.3249 40.4763L43.8249 40.4801ZM40.4158 40.4801L40.9159 40.4839L40.9158 40.4763L40.4158 40.4801ZM42.1204 42.6847C43.3023 42.6847 44.3157 41.705 44.3249 40.4839L43.3249 40.4764C43.3199 41.1444 42.7567 41.6847 42.1204 41.6847V42.6847ZM44.3249 40.4763C44.3157 39.2668 43.2996 38.2898 42.1204 38.2898V39.2898C42.7593 39.2898 43.32 39.8327 43.3249 40.4839L44.3249 40.4763ZM42.1204 38.2898C40.9144 38.2898 39.9066 39.2669 39.9159 40.4839L40.9158 40.4763C40.9109 39.8325 41.4514 39.2898 42.1204 39.2898V38.2898ZM39.9159 40.4764C39.9066 41.7048 40.9116 42.6847 42.1204 42.6847V41.6847C41.4542 41.6847 40.9109 41.1446 40.9158 40.4839L39.9159 40.4764Z" fill="#0983A9"/>
<defs>
<filter id="filter0_d" x="1" y="5" width="69" height="69" filterUnits="userSpaceOnUse" color-interpolation-filters="sRGB">
<feFlood flood-opacity="0" result="BackgroundImageFix"/>
<feColorMatrix in="SourceAlpha" type="matrix" values="0 0 0 0 0 0 0 0 0 0 0 0 0 0 0 0 0 0 127 0"/>
<feOffset dy="4"/>
<feGaussianBlur stdDeviation="2"/>
<feColorMatrix type="matrix" values="0 0 0 0 0 0 0 0 0 0 0 0 0 0 0 0 0 0 0.25 0"/>
<feBlend mode="normal" in2="BackgroundImageFix" result="effect1_dropShadow"/>
<feBlend mode="normal" in="SourceGraphic" in2="effect1_dropShadow" result="shape"/>
</filter>
<radialGradient id="paint0_angular" cx="0" cy="0" r="1" gradientUnits="userSpaceOnUse" gradientTransform="translate(35.5 35.5) rotate(-90) scale(20.4573)">
<stop offset="0.254723" stop-color="#00D5D5" stop-opacity="0.5"/>
<stop offset="0.742808" stop-color="#00D5D5" stop-opacity="0.5"/>
<stop offset="1" stop-color="#00D5D5"/>
</radialGradient>
<radialGradient id="paint1_angular" cx="0" cy="0" r="1" gradientUnits="userSpaceOnUse" gradientTransform="translate(36 32) rotate(90) scale(17 34)">
<stop stop-color="#00D5D5"/>
<stop offset="0.255208" stop-color="#E5E5E5"/>
<stop offset="0.744792" stop-color="#E5E5E5"/>
</radialGradient>
</defs>
</svg>
